<svg version="1" xmlns="http://www.w3.org/2000/svg" width="789.333" height="789.333" viewBox="0 0 592.000000 592.000000"><path d="M392.4 2.5c.9 2.4 1.6 5 2.3 8.8.3 1.5.9 3 1.4 3.3.5.3.9 1.6.9 3s.4 3.3 1 4.3c.5 1 1.1 2.9 1.4 4.2.9 4.4 1.4 6.4 2.6 10.9.7 2.5 1.4 5.3 1.6 6.3.2 1 .6 2.8 1 3.9.3 1.1.8 3 .9 4.1.5 2.6 1.3 6.2 1.5 6.2.1 0 .3 1.3.5 3 .2 1.6.6 4.1.9 5.5.3 1.4 1.1 5.1 1.7 8.3.9 5.3 1.4 8.2 2.4 14.4.2 1.3.6 4.2 1 6.5 1.1 7.4 1.4 9.1 2 15.3.3 3.3.8 7.6 1 9.5.4 3.1.9 10.1 2.1 26 .4 6.1.4 47.2 0 54-1 15.8-1.8 25.8-2.1 28-.4 2.6-1.2 8.5-2 15.6-.2 2.3-1.2 8.3-2 13.5-.9 5.2-1.8 10.3-1.9 11.4-.8 4.4-1.8 9.4-3.7 18-1.1 4.9-2.2 9.9-2.4 11-2.2 9.8-14.8 51.3-17.4 57-.5 1.1-3.1 7.4-5.7 14-6.7 16.9-14.5 33.5-25.1 53.5-6.7 12.6-9.6 17.5-10.5 17.8-.4.2-.8.8-.8 1.3 0 1.3-14.3 24.4-16 25.9-.3.3-1.7 2.3-3 4.5s-2.7 4.2-3 4.5c-.3.3-2.9 3.7-5.8 7.7-19.6 26.6-47.2 56.9-67.4 73.8-2.7 2.1-4.8 4.2-4.8 4.5 0 .3 5.3.6 11.8.6 11.3.2 35 1.1 46.2 1.9 19.9 1.3 22.7 1.5 40 3 3 .3 8.3.7 11.7 1 3.4.2 8.5.7 11.5 1 2.9.4 8 .8 11.3 1 5.6.4 11.4.9 22.5 2 2.5.3 8.6.7 13.5 1 5 .3 12.4.8 16.5 1.1 6.8.5 36.4 1.6 40 1.4h3.5c10 .4 49.2-1.5 50.2-2.4.3-.3 7.2-24.4 7.7-26.9.2-1.2 1.1-4.9 1.9-8.2 2-7.9 6.1-28.4 7.2-36.5.2-1.4.6-3.9.9-5.5.3-1.7.8-5.3 1.1-8 .3-2.8.7-6.1 1-7.5.3-1.4.7-5.8 1.1-9.8.3-4 .7-8.1.9-9.1 1.9-9.8 2.7-75.5 1.2-95.6-1.4-19.4-2.1-26.6-3.1-33.5-.6-4.2-2.6-18.5-3.1-22-.7-5.1-1.6-10.6-2.5-15-.5-2.5-1.2-6.1-1.5-8-.3-1.9-1.1-5.3-1.6-7.5-.6-2.2-1.3-5.1-1.4-6.5-.5-3.2-8.4-34-9.1-35.2-.3-.4-.7-1.9-1-3.1-.8-4.7-12.9-40.6-15.9-47.2-.7-1.7-3.5-8.2-6.1-14.5-2.6-6.3-6.8-15.8-9.2-21-2.5-5.2-4.6-9.7-4.7-10-.6-2.1-14.1-27.8-17.9-34-4.7-7.8-5.7-9.6-6.2-11.3-.4-.9-1-1.7-1.5-1.7s-.9-.5-.9-1c0-1.2-5.1-9.2-6.5-10.2-.5-.4-.7-.8-.3-.8 1.3 0-28.7-43.5-34.7-50.3-.6-.7-2.6-3.2-4.5-5.7s-3.7-4.7-4-5c-.3-.3-3.8-4.6-7.9-9.5-4.1-5-8.4-9.9-9.5-11-2-1.9-2-1.9-1.2 0z"/><path d="M387.5 114.9c-.3.5-.7 2.2-.9 3.8-.3 1.5-.7 3.7-.9 4.8-2.8 10.8-3.9 15.4-4.3 17.5-.6 2.6-.6 2.9-7.9 26.9-4 13.4-11.2 34.4-14.7 42.9-.6 1.5-1.2 3.1-1.3 3.7-.4 1.4-9.2 22-11.6 26.9-1 2.2-1.9 4.6-1.9 5.3 0 .7-.5 1.3-1.2 1.3-.6 0-.9.3-.6.6 1 1-20 41.7-30.7 59.5-3 5-5.5 9.4-5.5 9.7 0 .3-1.1 2-2.5 3.8-1.4 1.8-2.5 3.5-2.5 3.8 0 .3-2.3 4.1-5.1 8.3-2.9 4.3-7.3 10.9-9.8 14.8-2.5 3.8-4.8 7.2-5.1 7.5-.3.3-2.5 3.4-5 7-11.6 17-40.7 54.3-49.5 63.5-1.1 1.2-3.5 4-5.4 6.3-1.8 2.4-4.5 5.5-6 7-1.4 1.5-7.3 7.9-13.1 14.2-11.2 12.3-39.4 40.6-50.2 50.5-13 11.9-28.9 26.1-33.8 30.1-1.9 1.6-3.7 3.1-4 3.4-.3.3-2.7 2.3-5.5 4.5-2.7 2.2-5.4 4.4-6 5-.5.6-4.4 3.8-8.5 7.1-4.1 3.2-7.6 6.2-7.8 6.6-.2.5-1 .8-1.7.8s-1.5.4-1.7.8c-.1.4-4.1 3.7-8.8 7.2-4.7 3.6-9.1 7.1-9.8 7.7-.7.7-1.6 1.3-2 1.3-.4 0-2 1.1-3.6 2.5-1.6 1.3-5.1 3.9-7.8 5.6-2.7 1.7-4.7 3.3-4.5 3.6.3.2 2.4-.3 4.8-1.2 2.4-.9 5.5-1.8 6.8-2.1 1.4-.3 2.8-.7 3.2-1 1.9-1.2 36.6-10.8 46.4-12.9 1.1-.3 3.1-.7 4.5-1 1.4-.3 3.4-.7 4.5-.9 1.1-.3 4.3-1 7-1.6 2.8-.6 6.6-1.3 8.5-1.6 1.9-.2 4.2-.7 5.1-1 1.7-.5 5.7-1.1 11.4-1.9 1.7-.2 4.6-.7 6.5-1 1.9-.4 4.9-.9 6.5-1.1 1.7-.1 5-.5 7.5-.8 8.7-1 13.6-1.6 18.2-2.1 2.8-.4 5.8-1.5 7.5-2.9 7.5-6.3 20.4-17.3 25.8-22 7.2-6.2 37.2-35.9 44-43.7 12.6-14.1 16.9-19.4 28-33.9 3.5-4.7 6.8-9 7.2-9.5 3-3.8 17.3-26.2 22.8-35.6 8.7-14.8 24.3-46.6 25.2-51.3.2-1.1.7-2.4 1.2-3 1.6-1.9 12.4-31.9 13.6-37.9.2-.9.7-2.2 1-2.7.3-.5.8-1.8 1-2.7.2-1 2-8 3.9-15.5 2-7.5 3.8-15.2 4.1-16.9.3-1.8.7-3.5.9-3.8.2-.3.7-2.2 1-4.1.3-1.9.8-4.6 1-6 3-16.6 5.8-34.6 7.1-47 .2-1.4.6-5.2 1-8.5.3-3.3.8-7.8 1-10 .3-4.9 1.7-24.4 2.1-30.5.1-2.5.5-16.4.9-30.9.3-14.6.8-26.8 1.1-27.3.3-.4.3-.8 0-.8s-.7.4-1.1.9z"/></svg>